<?xml version="1.0" encoding="utf-8"?>
<!-- Generator: Adobe Illustrator 17.0.0, SVG Export Plug-In . SVG Version: 6.00 Build 0)  -->
<!DOCTYPE svg PUBLIC "-//W3C//DTD SVG 1.1//EN" "http://www.w3.org/Graphics/SVG/1.1/DTD/svg11.dtd">
<svg version="1.1" id="Layer_1" xmlns="http://www.w3.org/2000/svg" xmlns:xlink="http://www.w3.org/1999/xlink" x="0px" y="0px"
	 width="113.271px" height="14.879px" viewBox="0 0 113.271 14.879" enable-background="new 0 0 113.271 14.879"
	 xml:space="preserve">
<g>
	<g>
		<path fill="#686868" d="M8.554,8.967H7.173v2.918H4.914V3.659L4.552,3.053h4.002c2.04,0,3.138,1.446,3.138,2.957
			C11.692,7.521,10.595,8.967,8.554,8.967z M8.452,5.08H7.173v1.859h1.279c0.62,0,0.981-0.452,0.981-0.929
			C9.433,5.532,9.071,5.08,8.452,5.08z"/>
		<path fill="#686868" d="M16.754,11.884l-1.401-3.06h-0.762v3.06h-2.259V3.659L11.97,3.053h4.003c2.04,0,3.137,1.446,3.137,2.957
			c0,1.252-0.774,2.04-1.497,2.401l1.762,3.473H16.754z M15.869,5.08h-1.278v1.859h1.278c0.62,0,0.982-0.452,0.982-0.929
			C16.851,5.532,16.489,5.08,15.869,5.08z"/>
		<path fill="#686868" d="M25.871,11.896l-0.599-1.731h-2.408l-0.699,1.731h-2.362l3.119-8.237l-0.137-0.595h2.105l3.344,8.832
			H25.871z M24.076,5.807L23.25,8.362h1.601L24.076,5.807z"/>
		<path fill="#686868" d="M28.902,11.884V3.659L28.54,3.053h2.621v8.831H28.902z"/>
		<path fill="#686868" d="M35.361,11.884c-1.408,0-2.557-0.246-3.486-1.156l1.447-1.378c0.477,0.456,1.316,0.615,2.052,0.615
			c0.891,0,1.317-0.283,1.317-0.788c0-0.209-0.052-0.382-0.181-0.517c-0.116-0.111-0.31-0.196-0.607-0.234l-1.111-0.148
			c-0.813-0.111-1.432-0.369-1.846-0.775c-0.426-0.418-0.633-1.01-0.633-1.76c0-1.6,1.266-2.769,3.358-2.769
			c1.316,0,2.311,0.295,3.099,1.046L37.35,5.376c-0.581-0.554-1.342-0.517-1.743-0.517c-0.788,0-1.111,0.431-1.111,0.812
			c0,0.111,0.039,0.27,0.18,0.406c0.116,0.111,0.31,0.222,0.633,0.259l1.11,0.147c0.827,0.111,1.42,0.358,1.808,0.726
			c0.491,0.455,0.685,1.107,0.685,1.919C38.912,10.912,37.298,11.884,35.361,11.884z"/>
		<path fill="#686868" d="M39.548,11.896V3.659l-0.361-0.595h6.25v1.935h-3.628v1.476h2.686V8.41h-2.686v1.551h3.628v1.935H39.548z"
			/>
	</g>
	<g>
		<polygon fill="#EF7622" points="54.201,7.144 56.397,7.144 56.397,5.332 54.201,5.332 54.201,3.894 57.836,3.894 57.836,8.583 
			54.201,8.583 		"/>
		<polygon fill="#EF7622" points="52.389,3.894 52.389,5.332 50.193,5.332 50.193,7.144 52.389,7.144 52.389,8.71 50.899,10.888 
			50.899,8.583 48.755,8.583 48.755,3.894 		"/>
		<polygon display="none" fill="#EF7622" points="52.389,5.063 52.389,3.894 48.755,3.894 48.755,8.583 50.899,8.583 50.899,8.979 
			52.389,11.157 52.389,7.413 49.924,7.413 49.924,5.063 		"/>
	</g>
	<g>
		<path fill="#686868" d="M64.997,3.092c2.052,0,3.102,1.122,3.102,1.122l-0.591,0.893c0,0-0.99-0.929-2.462-0.929
			c-1.908,0-3.15,1.448-3.15,3.259c0,1.822,1.267,3.367,3.162,3.367c1.605,0,2.631-1.111,2.631-1.111l0.64,0.857
			c0,0-1.17,1.352-3.307,1.352c-2.558,0-4.357-1.956-4.357-4.454C60.664,4.975,62.523,3.092,64.997,3.092z"/>
		<path fill="#686868" d="M69.476,3.237h1.196v3.742h4.417V3.237h1.195v8.521h-1.195V8.017h-4.417v3.741h-1.196V3.237z"/>
		<path fill="#686868" d="M77.999,3.237h1.194v5.504c0,1.303,0.845,2.064,2.148,2.064c1.315,0,2.172-0.761,2.172-2.088v-5.48h1.196
			v5.504c0,1.894-1.364,3.162-3.356,3.162c-1.991,0-3.355-1.268-3.355-3.162V3.237z"/>
		<path fill="#686868" d="M86.424,3.237h2.608c0.893,0,1.268,0.073,1.593,0.193c0.869,0.326,1.436,1.183,1.436,2.306
			c0,1.086-0.603,2.003-1.533,2.305v0.024c0,0,0.097,0.109,0.254,0.386l1.81,3.307H91.24l-1.798-3.391H87.62v3.391h-1.196V3.237z
			 M89.333,7.329c0.93,0,1.508-0.592,1.508-1.545c0-0.627-0.241-1.074-0.676-1.316c-0.229-0.121-0.507-0.193-1.17-0.193H87.62v3.054
			H89.333z"/>
		<path fill="#686868" d="M97.433,3.092c2.051,0,3.101,1.122,3.101,1.122l-0.591,0.893c0,0-0.99-0.929-2.463-0.929
			c-1.907,0-3.15,1.448-3.15,3.259c0,1.822,1.268,3.367,3.163,3.367c1.605,0,2.631-1.111,2.631-1.111l0.64,0.857
			c0,0-1.171,1.352-3.308,1.352c-2.558,0-4.357-1.956-4.357-4.454C93.1,4.975,94.959,3.092,97.433,3.092z"/>
		<path fill="#686868" d="M101.912,3.237h1.195v3.742h4.418V3.237h1.195v8.521h-1.195V8.017h-4.418v3.741h-1.195V3.237z"/>
	</g>
</g>
</svg>
